<svg width="78" height="54" viewBox="0 0 78 54" fill="none" xmlns="http://www.w3.org/2000/svg">
<path d="M4.65302 43H0.587105L6.78237 25.0539H11.672L17.8585 43H13.7926L9.29729 29.1548H9.15708L4.65302 43ZM4.3989 35.946H14.0029V38.9078H4.3989V35.946ZM25.3543 41.9389C25.3543 42.8273 25.7738 43.2468 26.4647 43.2468C27.9206 43.2468 29.3765 41.5688 30.4869 39.1999L30.3389 39.0765C29.1544 41.1987 28.0933 42.2597 27.2297 42.2597C26.7855 42.2597 26.6375 42.013 26.6375 41.5688C26.6375 40.4831 27.8219 35.77 28.8336 31.8465H32.0908L32.1649 31.501H28.9323C29.2284 30.3413 29.4999 29.2802 29.722 28.3919L29.4999 28.3672C28.883 30.1438 28.3401 31.1556 27.7479 31.501H26.1439L26.0946 31.8465H27.6739C26.7362 35.77 25.3543 40.4337 25.3543 41.9389ZM35.3049 43.2468C38.34 43.2468 41.2024 39.6441 41.2024 35.1037C41.2024 32.4387 39.8206 31.2543 37.9452 31.2543C34.9347 31.2543 32.0477 34.6349 32.0477 39.3973C32.0477 42.0623 33.4295 43.2468 35.3049 43.2468ZM37.5257 31.5997C39.1297 31.5997 39.944 32.7348 39.944 35.1284C39.944 38.9778 37.8959 42.9013 35.7244 42.9013C34.1451 42.9013 33.3061 41.7909 33.3061 39.3726C33.3061 35.4985 35.3542 31.5997 37.5257 31.5997ZM49.1043 43V40.748L58.0598 28.1822H49.0868V25.0539H62.8268V27.3059L53.8625 39.8717H62.8443V43H49.1043Z" fill="#1502FF"/>
<path d="M70.8916 43.4155C69.8369 43.4155 68.9314 43.0426 68.175 42.2969C67.4293 41.5405 67.0564 40.6349 67.0564 39.5803C67.0564 38.5362 67.4293 37.6413 68.175 36.8956C68.9314 36.1499 69.8369 35.777 70.8916 35.777C71.9144 35.777 72.8092 36.1499 73.5763 36.8956C74.3433 37.6413 74.7269 38.5362 74.7269 39.5803C74.7269 40.2834 74.5457 40.9279 74.1835 41.5138C73.832 42.0891 73.3685 42.5526 72.7933 42.9041C72.218 43.245 71.5841 43.4155 70.8916 43.4155Z" fill="#F83098"/>
</svg>
